<svg width="25" height="25" viewBox="0 0 25 25" fill="none" xmlns="http://www.w3.org/2000/svg">
<g id="Frame">
<path id="Vector" d="M17.3023 3.06641C18.6433 3.06641 19.9333 3.59641 20.8823 4.54741C21.8323 5.49641 22.3633 6.77641 22.3633 8.11641V16.0164C22.3633 18.8064 20.0933 21.0664 17.3023 21.0664H7.42328C4.63228 21.0664 2.36328 18.8064 2.36328 16.0164V8.11641C2.36328 5.32641 4.62228 3.06641 7.42328 3.06641H17.3023ZM18.4333 8.26641C18.2233 8.25541 18.0233 8.32641 17.8723 8.46641L13.3633 12.0664C12.7833 12.5474 11.9523 12.5474 11.3633 12.0664L6.86328 8.46641C6.55228 8.23641 6.12228 8.26641 5.86328 8.53641C5.59328 8.80641 5.56328 9.23641 5.79228 9.53641L5.92328 9.66641L10.4733 13.2164C11.0333 13.6564 11.7123 13.8964 12.4233 13.8964C13.1323 13.8964 13.8233 13.6564 14.3823 13.2164L18.8933 9.60641L18.9733 9.52641C19.2123 9.23641 19.2123 8.81641 18.9623 8.52641C18.8233 8.37741 18.6323 8.28641 18.4333 8.26641Z" fill="#00796B"/>
</g>
</svg>
