<svg width="33" height="41" viewBox="0 0 33 41" fill="none" xmlns="http://www.w3.org/2000/svg">
<g id="Logo">
<path id="Vector" d="M32.9068 15.2195C32.5209 14.8077 32.0608 14.4653 31.5467 14.2147C30.9219 13.9052 30.2206 13.7323 29.477 13.7323C28.9805 13.7323 28.5017 13.8099 28.0534 13.9523C27.3592 14.1711 26.7344 14.5477 26.2214 15.0406C24.8672 10.9402 21.0056 7.98347 16.4522 7.98347C11.8988 7.98347 8.03727 10.9426 6.68419 15.0418C6.33475 14.7077 5.93588 14.4288 5.49819 14.2147C4.87343 13.9052 4.17218 13.7323 3.42858 13.7323C2.93206 13.7323 2.45318 13.8099 2.0049 13.9523C1.23071 14.1982 0.542407 14.6371 0 15.216C0.198843 13.4052 0.695363 11.6215 1.48721 9.94484C2.27552 8.27644 3.35798 6.71158 4.73223 5.33615C5.10992 4.95847 5.50172 4.60196 5.90647 4.26899C5.95824 4.22663 6.01001 4.18427 6.06178 4.14309C6.14649 4.07485 6.23003 4.00778 6.31474 3.94307C6.35593 3.91013 6.39828 3.87836 6.44064 3.84777C6.48182 3.816 6.52418 3.78423 6.56653 3.75482C6.6136 3.71834 6.65948 3.68422 6.70655 3.6501C6.74773 3.61951 6.79126 3.58892 6.83362 3.56068C6.84421 3.55362 6.85362 3.54538 6.86421 3.5395C6.87127 3.5348 6.87951 3.52774 6.88657 3.52303C6.94304 3.48185 6.99952 3.44184 7.05835 3.40302C7.16071 3.33242 7.26543 3.263 7.36897 3.19476C8.1008 2.71707 8.87147 2.29703 9.67626 1.93699C9.79156 1.88522 9.90804 1.83463 10.0233 1.78756C10.1351 1.7405 10.2481 1.69579 10.361 1.6499C10.374 1.6452 10.3857 1.63931 10.3987 1.63578C10.5081 1.59343 10.6175 1.55107 10.7305 1.51107C10.8493 1.46753 10.9681 1.424 11.0882 1.38399C11.2093 1.34399 11.3305 1.30281 11.4505 1.26516C11.5529 1.23221 11.6541 1.20162 11.7565 1.17221C11.7635 1.17103 11.7729 1.16868 11.78 1.16632C11.82 1.15338 11.8612 1.14279 11.9012 1.13103C11.9941 1.10514 12.0894 1.07808 12.1824 1.05455C12.1918 1.0522 12.2012 1.04984 12.2106 1.04749C12.3036 1.02396 12.3953 0.99925 12.4895 0.976894C12.4954 0.975718 12.5012 0.974541 12.5071 0.973365C12.5718 0.956892 12.6354 0.941597 12.7013 0.927478C12.766 0.912182 12.8295 0.896886 12.8954 0.883944C12.9601 0.869825 13.0236 0.855706 13.0895 0.84394C13.1542 0.829821 13.2178 0.818055 13.2837 0.805113C13.5449 0.754519 13.8073 0.710986 14.0708 0.673335C14.2061 0.654509 14.3391 0.636861 14.4744 0.620388C14.5697 0.608623 14.6662 0.598033 14.7626 0.588621C14.8274 0.582738 14.8897 0.575678 14.9532 0.569795C14.9638 0.568619 14.9744 0.568619 14.985 0.567442C14.9909 0.567442 14.998 0.566265 15.0038 0.566265C15.0897 0.559206 15.1744 0.552146 15.2592 0.546263C15.3603 0.539204 15.4615 0.532144 15.5639 0.527438C15.5757 0.527438 15.5851 0.526261 15.5968 0.526261C15.6027 0.525085 15.611 0.525085 15.6168 0.525085C15.6451 0.522732 15.6721 0.521555 15.7004 0.521555C15.7133 0.520378 15.7239 0.520378 15.7369 0.520378C15.8416 0.515672 15.9463 0.512142 16.051 0.508613H16.0757C16.2016 0.505083 16.3275 0.503906 16.4546 0.503906C16.5816 0.503906 16.7075 0.505083 16.8334 0.508613H16.8581C16.9676 0.510966 17.0746 0.514496 17.1829 0.520378C17.1911 0.520378 17.2017 0.521555 17.2111 0.521555C17.237 0.521555 17.2629 0.522732 17.2888 0.525085C17.3005 0.525085 17.3111 0.526261 17.3229 0.526261C17.4323 0.530968 17.5406 0.538027 17.65 0.546263C17.7371 0.552146 17.8253 0.559206 17.9124 0.567442C17.9818 0.572148 18.0512 0.579208 18.1206 0.586267C18.1265 0.586267 18.1336 0.587444 18.1394 0.587444C18.2395 0.598033 18.3371 0.607446 18.4359 0.620388C18.5689 0.636861 18.7042 0.654509 18.8372 0.673335C19.1007 0.710986 19.3619 0.755696 19.6243 0.805113C19.7549 0.829821 19.8867 0.856882 20.0161 0.886297C20.1455 0.914535 20.2761 0.94395 20.4056 0.975718C20.5162 1.0016 20.6268 1.03102 20.7385 1.06043C20.7409 1.06161 20.7444 1.06161 20.7479 1.06279C20.8021 1.0769 20.8562 1.0922 20.9103 1.10632C20.9174 1.10867 20.9268 1.11103 20.9338 1.11338C20.9986 1.13103 21.0609 1.1475 21.1245 1.16632C21.1256 1.16632 21.128 1.1675 21.1292 1.1675C21.135 1.16868 21.1409 1.17103 21.1468 1.17221C21.1515 1.17338 21.1586 1.17574 21.1633 1.17691C21.2645 1.20633 21.3633 1.23574 21.4621 1.26751C21.5821 1.30516 21.701 1.34399 21.8198 1.38517C21.9398 1.42517 22.0587 1.46871 22.1787 1.51224C22.281 1.54872 22.3822 1.58754 22.4846 1.62637C22.5011 1.63225 22.5164 1.63931 22.5328 1.6452H22.534C22.6517 1.69226 22.7681 1.73932 22.8846 1.78756C22.9999 1.8358 23.1164 1.88522 23.2317 1.93699C24.0377 2.29703 24.8083 2.71824 25.539 3.19476C25.6437 3.263 25.7484 3.33242 25.8496 3.40302C25.9073 3.44184 25.9638 3.48067 26.0214 3.52303C26.0285 3.52774 26.0367 3.5348 26.0438 3.5395C26.0543 3.54538 26.0638 3.55362 26.0744 3.56068C26.1167 3.59009 26.1602 3.61951 26.2014 3.6501C26.2485 3.68422 26.2944 3.71834 26.3414 3.75482C26.3838 3.78541 26.4262 3.816 26.4673 3.84777C26.5097 3.87954 26.552 3.9113 26.5932 3.94307C27.1439 4.36782 27.6722 4.83257 28.1769 5.33615C29.5523 6.71158 30.6336 8.27644 31.4219 9.94484C32.2138 11.6227 32.7103 13.4075 32.9091 15.2195H32.9068Z" fill="white"/>
<g id="Logo Details">
<path id="Vector_2" fillRule="evenodd" clipRule="evenodd" d="M31.8736 23.1059C31.4794 24.1201 30.9817 25.1026 30.3817 26.0344C30.0981 26.4756 29.791 26.9074 29.4592 27.3251C28.8497 26.8051 28.2109 26.3227 27.5484 25.8803C26.6766 25.2955 25.7647 24.779 24.8164 24.3366C26.0601 23.3624 27.572 22.7694 29.2098 22.7117C29.2992 22.7082 29.3874 22.707 29.4757 22.707C30.3122 22.707 31.1159 22.8459 31.8724 23.1059H31.8736Z" fill="white"/>
<path id="Vector_3" d="M6.53975 18.4414C6.53975 20.158 5.14667 21.5511 3.43003 21.5511C3.3312 21.5511 3.23237 21.5464 3.13589 21.5358C3.0147 21.5252 2.89469 21.5076 2.7782 21.4817C1.37218 21.184 0.320312 19.9345 0.320312 18.4414C0.320312 17.0518 1.23217 15.8729 2.48994 15.474C2.78644 15.3799 3.10294 15.3281 3.43121 15.3281C3.92185 15.3281 4.38542 15.4423 4.7984 15.6458C5.83145 16.1506 6.54211 17.2118 6.54211 18.4402L6.53975 18.4414Z" fill="white"/>
<path id="Vector_4" d="M32.5878 18.4429C32.5878 20.1102 31.2747 21.4726 29.6263 21.5491C29.5769 21.5526 29.5275 21.5538 29.4769 21.5538C29.2534 21.5538 29.0345 21.5315 28.8251 21.4844C27.4191 21.1867 26.3672 19.9372 26.3672 18.4441C26.3672 16.7263 27.7591 15.332 29.4769 15.332C29.7522 15.332 30.0181 15.3673 30.2711 15.4344C30.4711 15.4873 30.6629 15.5603 30.8441 15.6497C31.8771 16.1545 32.5878 17.2157 32.5878 18.4441V18.4429Z" fill="white"/>
<path id="Vector_5" fillRule="evenodd" clipRule="evenodd" d="M8.13784 24.3754C7.15068 24.8414 6.20235 25.3885 5.29873 26.0062C4.67514 26.4333 4.07273 26.8957 3.4962 27.3887C3.14558 26.9498 2.82202 26.498 2.52552 26.0344C1.92428 25.1014 1.42541 24.1189 1.03125 23.1047C1.7878 22.847 2.59376 22.707 3.42914 22.707C3.47032 22.707 3.51032 22.707 3.5515 22.7082C5.26461 22.7341 6.8483 23.3506 8.13784 24.3743V24.3754Z" fill="white"/>
<path id="Vector_6" fillRule="evenodd" clipRule="evenodd" d="M22.7615 16.7948C22.7615 19.4586 21.0861 21.7318 18.7317 22.6178C18.0505 22.8743 17.3116 23.0155 16.5409 23.0155C15.7703 23.0155 15.0243 22.8731 14.3384 22.6142C11.9899 21.7247 10.3203 19.4551 10.3203 16.7948C10.3203 13.358 13.1053 10.5742 16.5409 10.5742C19.9766 10.5742 22.7615 13.358 22.7615 16.7948Z" fill="white"/>
<path id="Vector_7" fillRule="evenodd" clipRule="evenodd" d="M27.5279 29.425C23.8358 33.1171 20.1448 36.8069 16.4539 40.4978C12.7818 36.8257 9.11081 33.1547 5.4375 29.4814C5.9752 29.0379 6.53525 28.6261 7.11767 28.2495C8.0707 27.6295 9.08139 27.1035 10.1368 26.6764C11.3957 26.1693 12.7206 25.8069 14.0901 25.6105C14.8831 25.4975 15.6938 25.4375 16.5162 25.4375C17.3387 25.4375 18.0729 25.4904 18.8318 25.5963C20.206 25.7822 21.532 26.1364 22.7957 26.6353C23.8276 27.0435 24.8159 27.5483 25.7501 28.1413C26.3666 28.5319 26.9608 28.9602 27.5279 29.4238V29.425Z" fill="white"/>
</g>
</g>
</svg>
